<svg width="128" height="128" viewBox="0 0 128 128" fill="none" xmlns="http://www.w3.org/2000/svg">
  <defs>
    <linearGradient id="redGrad2" x1="0%" y1="0%" x2="100%" y2="100%">
      <stop offset="0%" stop-color="#E01E00"/>
      <stop offset="50%" stop-color="#C00A00"/>
      <stop offset="100%" stop-color="#8E0500"/>
    </linearGradient>
    <linearGradient id="pageGrad2" x1="0%" y1="0%" x2="0%" y2="100%">
      <stop offset="0%" stop-color="#FFFFFF"/>
      <stop offset="100%" stop-color="#F1F5F9"/>
    </linearGradient>
    <filter id="shadow2" x="-20%" y="-20%" width="140%" height="140%">
      <feDropShadow dx="0" dy="6" stdDeviation="5" flood-color="#9C0600" flood-opacity="0.35"/>
    </filter>
    <linearGradient id="shine2" x1="0%" y1="0%" x2="100%" y2="100%">
      <stop offset="0%" stop-color="#FFFFFF" stop-opacity="0.5"/>
      <stop offset="50%" stop-color="#FFFFFF" stop-opacity="0"/>
    </linearGradient>
  </defs>

  <!-- Book Outer Red Cover -->
  <path d="M16 38 C 16 38, 38 30, 64 40 C 90 30, 112 38, 112 38 L 112 90 C 112 90, 90 82, 64 92 C 38 82, 16 90, 16 90 Z" fill="url(#redGrad2)" filter="url(#shadow2)"/>

  <!-- Left Pages -->
  <path d="M22 34 C 22 34, 40 26, 62 36 L 62 84 C 40 74, 22 82, 22 82 Z" fill="url(#pageGrad2)"/>
  <path d="M22 34 C 22 34, 40 26, 62 36 L 62 84 C 40 74, 22 82, 22 82 Z" fill="url(#shine2)"/>

  <!-- Right Pages -->
  <path d="M106 34 C 106 34, 88 26, 66 36 L 66 84 C 88 74, 106 82, 106 82 Z" fill="url(#pageGrad2)"/>
  <path d="M106 34 C 106 34, 88 26, 66 36 L 66 84 C 88 74, 106 82, 106 82 Z" fill="url(#shine2)"/>

  <!-- Spine Center -->
  <path d="M62 36 L66 36 L66 86 L62 86 Z" fill="#CBD5E1"/>

  <!-- Page Lines Left -->
  <line x1="30" y1="46" x2="54" y2="42" stroke="#94A3B8" stroke-width="3.5" stroke-linecap="round"/>
  <line x1="30" y1="56" x2="54" y2="52" stroke="#CBD5E1" stroke-width="3.5" stroke-linecap="round"/>
  <line x1="30" y1="66" x2="48" y2="63" stroke="#CBD5E1" stroke-width="3.5" stroke-linecap="round"/>

  <!-- Page Lines Right -->
  <line x1="74" y1="42" x2="98" y2="46" stroke="#94A3B8" stroke-width="3.5" stroke-linecap="round"/>
  <line x1="74" y1="52" x2="98" y2="56" stroke="#CBD5E1" stroke-width="3.5" stroke-linecap="round"/>
  <line x1="74" y1="63" x2="92" y2="66" stroke="#CBD5E1" stroke-width="3.5" stroke-linecap="round"/>

  <!-- Red Ribbon Bookmark -->
  <path d="M62 38 L62 94 L69 88 L76 94 L76 38 Z" fill="url(#redGrad2)"/>
</svg>
