<svg width="128" height="128" viewBox="0 0 128 128" fill="none" xmlns="http://www.w3.org/2000/svg">
  <defs>
    <linearGradient id="redGrad3" x1="0%" y1="0%" x2="100%" y2="100%">
      <stop offset="0%" stop-color="#E01E00"/>
      <stop offset="50%" stop-color="#C00A00"/>
      <stop offset="100%" stop-color="#8E0500"/>
    </linearGradient>
    <linearGradient id="glassGrad3" x1="0%" y1="0%" x2="0%" y2="100%">
      <stop offset="0%" stop-color="#E2E8F0"/>
      <stop offset="100%" stop-color="#94A3B8"/>
    </linearGradient>
    <linearGradient id="wheelGrad3" x1="0%" y1="0%" x2="100%" y2="100%">
      <stop offset="0%" stop-color="#334155"/>
      <stop offset="100%" stop-color="#0F172A"/>
    </linearGradient>
    <filter id="shadow3" x="-20%" y="-20%" width="140%" height="140%">
      <feDropShadow dx="0" dy="6" stdDeviation="5" flood-color="#9C0600" flood-opacity="0.35"/>
    </filter>
    <linearGradient id="shine3" x1="0%" y1="0%" x2="100%" y2="100%">
      <stop offset="0%" stop-color="#FFFFFF" stop-opacity="0.6"/>
      <stop offset="50%" stop-color="#FFFFFF" stop-opacity="0"/>
    </linearGradient>
  </defs>

  <!-- Car Main Red Body -->
  <path d="M16 66 Q 22 52 36 50 L 46 32 Q 54 24 74 24 L 88 24 Q 98 24 104 36 L 114 54 Q 120 62 116 74 L 112 82 Q 108 86 98 86 L 30 86 Q 20 86 16 78 Z" fill="url(#redGrad3)" filter="url(#shadow3)"/>
  <path d="M16 66 Q 22 52 36 50 L 46 32 Q 54 24 74 24 L 88 24 Q 98 24 104 36 L 114 54 Q 120 62 116 74 L 112 82 Q 108 86 98 86 L 30 86 Q 20 86 16 78 Z" fill="url(#shine3)"/>

  <!-- Car Windshield & Windows -->
  <path d="M48 34 L 72 34 L 72 48 L 38 48 Z" fill="url(#glassGrad3)"/>
  <path d="M76 34 L 98 34 L 106 48 L 76 48 Z" fill="url(#glassGrad3)"/>

  <!-- Wheels -->
  <circle cx="36" cy="84" r="14" fill="url(#wheelGrad3)"/>
  <circle cx="36" cy="84" r="7" fill="#CBD5E1"/>

  <circle cx="92" cy="84" r="14" fill="url(#wheelGrad3)"/>
  <circle cx="92" cy="84" r="7" fill="#CBD5E1"/>

  <!-- Headlight -->
  <path d="M112 62 Q 118 64 116 70 Q 112 72 108 68 Z" fill="#FFDF73"/>
</svg>
